#!OML:ASF H:\Terrain\Patient Classification 1\Terrain2\Thursday\justin.ASF
:FULLY-SPECIFIED
:DEGREES
2271
root 9.90049 17.3696 -22.0837 1204.11 -80.5788 234.772
lowerback 5.04965 3.10811 8.10187
upperback 2.37717 4.36588 4.01951
thorax -0.0643281 2.15105 -0.574124
lowerneck -15.2256 -1.65891 -8.67365
upperneck 31.6005 -1.94526 3.93363
head 13.2814 -1.65394 2.68188
rclavicle 4.50247e-014 1.51076e-014
rhumerus -27.7985 -7.74991 -78.9707
rradius 28.8886
rwrist -11.6257
rhand -21.831 12.9845
rfingers 7.12502
rthumb 4.57197 -16.9462
lclavicle 4.50247e-014 1.51076e-014
lhumerus -38.0013 2.73472 86.0033
lradius 29.164
lwrist 3.37051
lhand -17.1777 21.2299
lfingers 7.12502
lthumb 9.06392 51.0152
rfemur -0.473168 -3.49239 33.8333
rtibia 21.0806
rfoot -15.5992 2.54181
rtoes 10.0709
lfemur -23.0543 5.97678 -7.1448
ltibia 57.7345
lfoot -9.84956 -8.47608
ltoes -4.5443
2272
root 9.7849 17.3637 -22.0903 1204.96 -80.3906 233.832
lowerback 5.14625 3.24781 8.08462
upperback 2.3827 4.56073 4.03223
thorax -0.101543 2.24646 -0.564366
lowerneck -15.1297 -1.74698 -9.07024
upperneck 31.4654 -2.06689 4.27061
head 13.2222 -1.70534 2.86334
rclavicle 7.66315e-014 6.12257e-014
rhumerus -27.6574 -7.93255 -78.8095
rradius 28.9708
rwrist -11.0959
rhand -21.4155 13.171
rfingers 7.12502
rthumb 4.97321 -16.7506
lclavicle 7.66315e-014 6.12257e-014
lhumerus -37.9965 2.23496 86.2824
lradius 29.225
lwrist 3.81834
lhand -17.2007 21.7032
lfingers 7.12502
lthumb 9.04171 51.4895
rfemur 0.207452 -3.12782 33.9065
rtibia 20.8406
rfoot -15.725 2.48301
rtoes 10.9558
lfemur -23.3397 5.78603 -7.08821
ltibia 56.2299
lfoot -10.0954 -7.90254
ltoes -2.75512
2273
root 9.66964 17.365 -22.0955 1206.16 -80.4075 232.597
lowerback 5.1643 3.293 7.81034
upperback 2.38323 4.61187 4.08273
thorax -0.134898 2.26913 -0.366643
lowerneck -14.9362 -1.70289 -9.20926
upperneck 31.3747 -2.02292 4.39791
head 13.1409 -1.68607 2.94276
rclavicle 4.92986e-014 4.6118e-014
rhumerus -27.472 -7.53952 -78.7082
rradius 29.0531
rwrist -10.8846
rhand -20.9243 13.4224
rfingers 7.12502
rthumb 5.44742 -16.4876
lclavicle 4.92986e-014 4.6118e-014
lhumerus -38.0383 2.36233 86.4711
lradius 29.2651
lwrist 3.9065
lhand -17.4601 21.3612
lfingers 7.12502
lthumb 8.79133 51.1581
rfemur 0.915926 -2.86 33.7123
rtibia 20.47
rfoot -15.724 2.74051
rtoes 14.333
lfemur -23.6245 5.64282 -7.30194
ltibia 54.6515
lfoot -10.6205 -7.12955
ltoes -3.8514
2274
root 9.55347 17.3645 -22.0937 1206.17 -80.2942 232.624
lowerback 5.10387 3.19203 7.99873
upperback 2.40391 4.47529 4.06372
thorax -0.0711672 2.20398 -0.478776
lowerneck -14.7771 -1.37973 -8.00651
upperneck 31.1178 -1.61027 3.50249
head 12.9418 -1.47185 2.44016
rclavicle -7.55382e-015 3.97569e-015
rhumerus -27.1634 -6.84386 -78.9174
rradius 29.0139
rwrist -10.681
rhand -20.5565 13.8749
rfingers 7.12502
rthumb 5.80253 -16.0256
lclavicle -7.55382e-015 3.97569e-015
lhumerus -37.9995 2.84485 86.3389
lradius 29.2922
lwrist 3.88469
lhand -17.6499 21.0801
lfingers 7.12502
lthumb 8.60824 50.8846
rfemur 1.58188 -2.73115 33.7331
rtibia 20.0139
rfoot -15.749 2.86115
rtoes 16.6668
lfemur -23.9813 5.48945 -7.31954
ltibia 53.081
lfoot -11.1678 -6.25193
ltoes -5.56188
2275
root 9.43914 17.3514 -22.0914 1205.14 -80.092 233.749
lowerback 5.01524 3.14088 8.49517
upperback 2.39059 4.41887 3.93176
thorax 0.0115493 2.18286 -0.876862
lowerneck -15.1992 -1.38556 -7.96774
upperneck 31.2801 -1.57707 3.47183
head 13.0976 -1.45575 2.42966
rclavicle 9.15403e-014 4.77083e-015
rhumerus -26.8956 -6.57019 -79.2982
rradius 29.104
rwrist -10.8568
rhand -20.8801 14.0365
rfingers 7.12502
rthumb 5.49014 -15.8724
lclavicle 9.15403e-014 4.77083e-015
lhumerus -37.9338 3.23448 85.9039
lradius 29.4034
lwrist 3.53751
lhand -17.7322 20.9484
lfingers 7.12502
lthumb 8.52879 50.7562
rfemur 2.17851 -2.71494 33.9908
rtibia 19.4461
rfoot -15.7436 2.79564
rtoes 16.2424
lfemur -24.4465 5.16102 -7.09649
ltibia 51.5861
lfoot -11.6206 -5.45586
ltoes -4.64703
2276
root 9.3232 17.3429 -22.0884 1204.3 -79.887 234.708
lowerback 4.87686 3.15854 8.92628
upperback 2.36649 4.44466 3.85694
thorax 0.107107 2.20203 -1.18047
lowerneck -15.1562 -1.39573 -8.30877
upperneck 31.1723 -1.61406 3.86586
head 13.0513 -1.456 2.63682
rclavicle 8.49804e-015 7.15625e-015
rhumerus -26.6974 -6.09786 -79.6439
rradius 29.5617
rwrist -12.0817
rhand -21.757 13.2939
rfingers 7.12502
rthumb 4.64344 -16.6352
lclavicle 8.49804e-015 7.15625e-015
lhumerus -37.946 3.76163 85.5144
lradius 29.6066
lwrist 2.91722
lhand -17.5818 20.5464
lfingers 7.12502
lthumb 8.67394 50.3482
rfemur 2.85492 -2.80304 34.2074
rtibia 18.6775
rfoot -15.8312 2.80648
rtoes 13.8342
lfemur -24.9136 5.07774 -6.89285
ltibia 50.1329
lfoot -12.0673 -4.76137
ltoes -4.00283
2277
root 9.20742 17.3453 -22.0865 1203.63 -79.6498 235.486
lowerback 4.79889 3.17611 9.33203
upperback 2.32647 4.47547 3.84121
thorax 0.146554 2.21993 -1.41377
lowerneck -15.2158 -1.45049 -8.62633
upperneck 31.1572 -1.67354 4.12345
head 13.0681 -1.48373 2.78434
rclavicle 2.06239e-014 -1.82882e-014
rhumerus -26.536 -5.9578 -79.7427
rradius 29.9387
rwrist -12.6359
rhand -21.6721 12.423
rfingers 7.12502
rthumb 4.72536 -17.5043
lclavicle 2.06239e-014 -1.82882e-014
lhumerus -37.9684 4.15784 85.3351
lradius 29.7443
lwrist 2.55794
lhand -17.2115 20.4336
lfingers 7.12502
lthumb 9.03124 50.2203
rfemur 3.58346 -2.9517 34.4055
rtibia 17.7937
rfoot -15.9525 2.8975
rtoes 11.4348
lfemur -25.3512 5.14583 -6.68281
ltibia 48.6315
lfoot -12.2957 -4.13234
ltoes -1.7296
2278
root 9.09298 17.3443 -22.0882 1203.64 -79.6114 235.563
lowerback 4.7849 3.24001 9.35333
upperback 2.27086 4.56639 3.81298
thorax 0.108691 2.2637 -1.45815
lowerneck -15.0932 -1.43867 -8.42262
upperneck 30.9506 -1.64865 3.92516
head 12.9499 -1.46728 2.67109
rclavicle -1.58034e-014 -1.23246e-014
rhumerus -26.474 -6.36222 -79.6309
rradius 30.0752
rwrist -12.0517
rhand -21.321 12.2148
rfingers 7.12502
rthumb 5.06445 -17.7047
lclavicle -1.58034e-014 -1.23246e-014
lhumerus -37.9945 4.26261 85.3228
lradius 29.7954
lwrist 2.22237
lhand -17.3544 20.3945
lfingers 7.12502
lthumb 8.89333 50.1871
rfemur 4.29321 -3.04541 34.3915
rtibia 16.951
rfoot -15.9946 2.76606
rtoes 9.21503
lfemur -25.7471 4.97785 -6.74608
ltibia 47.0159
lfoot -12.4662 -3.18941
ltoes -0.344626
2279
root 8.97403 17.3428 -22.0901 1203.76 -79.5967 235.449
lowerback 4.78345 3.26369 9.25725
upperback 2.22454 4.59953 3.82561
thorax 0.0549259 2.27693 -1.39598
lowerneck -15.052 -1.44657 -8.4398
upperneck 30.9292 -1.64062 3.87071
head 12.9319 -1.47281 2.65343
rclavicle -7.95139e-016 -8.74653e-015
rhumerus -26.448 -6.29956 -79.6323
rradius 30.2086
rwrist -11.7944
rhand -21.5211 12.0577
rfingers 7.12502
rthumb 4.87118 -17.8663
lclavicle -7.95139e-016 -8.74653e-015
lhumerus -38.0059 4.46182 85.3294
lradius 29.6914
lwrist 1.95316
lhand -17.7141 20.593
lfingers 7.12502
lthumb 8.54628 50.4
rfemur 5.12118 -2.95672 34.3573
rtibia 16.1193
rfoot -15.8132 2.70951
rtoes 9.79138
lfemur -25.9763 4.74643 -6.89028
ltibia 45.2918
lfoot -12.4136 -2.14961
ltoes -2.96505
2280
root 8.85415 17.3408 -22.0895 1202.72 -79.292 236.546
lowerback 4.69665 3.2524 9.6058
upperback 2.20188 4.58337 3.91339
thorax 0.100831 2.26899 -1.48871
lowerneck -15.1473 -1.44858 -8.39941
upperneck 31.0562 -1.63549 3.81443
head 13.0044 -1.47729 2.62726
rclavicle 4.42296e-015 1.27222e-014
rhumerus -26.2953 -6.04252 -79.6918
rradius 30.3663
rwrist -11.9407
rhand -21.7764 11.8365
rfingers 7.12502
rthumb 4.62467 -18.0931
lclavicle 4.42296e-015 1.27222e-014
lhumerus -37.9689 4.667 85.4099
lradius 29.6843
lwrist 2.08142
lhand -17.9482 21.1037
lfingers 7.12502
lthumb 8.32031 50.9199
rfemur 5.87607 -2.81546 34.6945
rtibia 15.3826
rfoot -15.4214 2.99799
rtoes 13.9517
lfemur -26.1741 4.49722 -6.58738
ltibia 43.4961
lfoot -12.0843 -1.62025
ltoes -3.58232
2281
root 8.73997 17.3379 -22.0884 1202.17 -79.076 237.288
lowerback 4.57353 3.24107 9.83608
upperback 2.12153 4.5654 3.97845
thorax 0.0981618 2.25749 -1.54086
lowerneck -15.0452 -1.3356 -8.19766
upperneck 30.9276 -1.46431 3.60659
head 12.9122 -1.40185 2.53484
rclavicle 9.53669e-014 5.20816e-014
rhumerus -26.1771 -5.91165 -79.6893
rradius 30.5099
rwrist -11.9254
rhand -22.1494 12.0425
rfingers 7.12502
rthumb 4.26448 -17.8946
lclavicle 9.53669e-014 5.20816e-014
lhumerus -37.9709 4.87288 85.5154
lradius 29.7215
lwrist 2.30428
lhand -18.0294 20.9644
lfingers 7.12502
lthumb 8.24193 50.7836
rfemur 6.40255 -2.87676 34.8838
rtibia 14.7303
rfoot -15.2992 3.22816
rtoes 15.3911
lfemur -26.5164 4.16459 -6.3338
ltibia 41.6915
lfoot -11.7676 -1.24486
ltoes -1.03806
2282
root 8.62792 17.3471 -22.0856 1202.6 -79.11 237.022
lowerback 4.59762 3.21778 9.77176
upperback 1.97576 4.5522 3.96832
thorax -0.0738697 2.24151 -1.52411
lowerneck -14.9267 -1.15941 -8.08192
upperneck 30.7863 -1.19015 3.44172
head 12.8059 -1.28521 2.48968
rclavicle -1.98288e-014 -4.37326e-015
rhumerus -26.216 -5.48572 -79.7091
rradius 30.6463
rwrist -12.1664
rhand -22.308 12.4296
rfingers 7.12502
rthumb 4.11132 -17.5105
lclavicle -1.98288e-014 -4.37326e-015
lhumerus -37.9914 4.98249 85.6061
lradius 29.5574
lwrist 2.3593
lhand -17.863 20.7049
lfingers 7.12502
lthumb 8.40259 50.5178
rfemur 7.10209 -3.00488 34.7174
rtibia 13.8114
rfoot -15.1704 3.30781
rtoes 13.9969
lfemur -26.7862 3.32412 -6.34763
ltibia 39.9101
lfoot -11.7069 -0.477337
ltoes 3.73021
2283
root 8.50767 17.3486 -22.0851 1202.2 -79.0989 237.55
lowerback 4.51506 3.23187 9.80245
upperback 1.87425 4.5731 3.94734
thorax -0.127665 2.24863 -1.56168
lowerneck -15.0308 -1.11675 -7.87307
upperneck 30.8712 -1.11448 3.23753
head 12.8556 -1.25599 2.38695
rclavicle 7.59854e-014 5.08889e-014
rhumerus -26.2066 -5.36641 -79.7283
rradius 30.6932
rwrist -12.4709
rhand -22.2921 12.775
rfingers 7.12502
rthumb 4.12667 -17.1647
lclavicle 7.59854e-014 5.08889e-014
lhumerus -38.0177 4.7117 85.732
lradius 29.5494
lwrist 2.18569
lhand -17.5665 21.0838
lfingers 7.12502
lthumb 8.68873 50.885
rfemur 7.95822 -2.94744 34.7422
rtibia 12.7852
rfoot -14.8164 3.26956
rtoes 14.0911
lfemur -27.0151 2.40106 -6.20071
ltibia 38.2422
lfoot -11.7964 0.0340397
ltoes 8.2175
2284
root 8.38647 17.3306 -22.0855 1202.26 -79.0973 237.631
lowerback 4.39073 3.29519 9.72627
upperback 1.78378 4.65093 3.88681
thorax -0.146677 2.28665 -1.58036
lowerneck -15.0446 -1.29431 -7.95847
upperneck 30.9095 -1.37284 3.30604
head 12.8945 -1.37223 2.38954
rclavicle -2.94698e-014 2.22639e-014
rhumerus -26.1327 -5.67567 -79.7456
rradius 30.6208
rwrist -12.4812
rhand -22.3129 12.889
rfingers 7.12502
rthumb 4.10664 -17.0511
lclavicle -2.94698e-014 2.22639e-014
lhumerus -38.0253 4.26146 85.8297
lradius 29.5878
lwrist 2.1557
lhand -17.4154 21.5036
lfingers 7.12502
lthumb 8.83453 51.2987
rfemur 8.78131 -2.81911 34.7483
rtibia 11.6733
rfoot -14.4755 3.11407
rtoes 13.718
lfemur -27.2832 2.04947 -6.2217
ltibia 36.5976
lfoot -11.7989 0.329371
ltoes 6.4035
